# xmcd
#
# Track frame offsets: 
#        150
#        2572
#        14655
#        20251
#        30837
#        54777
#        72152
#        95096
#        121594
#        130827
#        155433
#        180273
#        205733
#        235936
#        252825
#        274747
#        288375
#        311709
#
# Disc length: 4371 seconds
#
# Revision: 4
# Processed by: cddbd v1.5.1PL0 Copyright (c) Steve Scherf et al.
# Submitted via: ExactAudioCopy v0.95a5
#
DISCID=e1111112
DTITLE=Omar Sosa - A New Life
DYEAR=1900
DGENRE=Jazz
TTITLE0=Calling The Baby
TTITLE1=Una Mano 
TTITLE2=Three Persons 
TTITLE3=Crash De la Tierra 
TTITLE4=Vuelvo Iyawo  
TTITLE5=Danzon De Los Indios 
TTITLE6=Escucho 
TTITLE7=El Puente Conversando 
TTITLE8=El Aliento 
TTITLE9=Memory 
TTITLE10=Paloma Herida 
TTITLE11=Ofrenda 
TTITLE12=El Campo De Arere 
TTITLE13=La Otra Mano 
TTITLE14=Crashing Waves
TTITLE15=Suenos De Infancia 
TTITLE16=Nacimiento 
TTITLE17=Otra Nana 
EXTD=
EXTT0=
EXTT1=
EXTT2=
EXTT3=
EXTT4=
EXTT5=
EXTT6=
EXTT7=
EXTT8=
EXTT9=
EXTT10=
EXTT11=
EXTT12=
EXTT13=
EXTT14=
EXTT15=
EXTT16=
EXTT17=
PLAYORDER=
